<?xml version="1.0" encoding="utf-8"?>
<!-- Generator: Adobe Illustrator 22.1.0, SVG Export Plug-In . SVG Version: 6.00 Build 0)  -->
<svg version="1.1" id="Layer_1" xmlns="http://www.w3.org/2000/svg" xmlns:xlink="http://www.w3.org/1999/xlink" x="0px" y="0px"
	 viewBox="0 0 546 122.5" style="enable-background:new 0 0 546 122.5;" xml:space="preserve">
<style type="text/css">
	.st0{fill:none;}
	.st1{fill:#204582;}
</style>
<rect class="st0" width="546" height="122.5"/>
<g>
	<path class="st1" d="M158.9,31.1h19.8v1.6c0,3.6-0.4,6.8-1.3,9.6c-0.8,2.6-2.2,5-4.2,7.2c-4.5,5-10.1,7.5-17,7.5
		c-6.7,0-12.5-2.4-17.2-7.3c-4.8-4.9-7.2-10.7-7.2-17.5c0-7,2.4-12.9,7.3-17.7c4.9-4.9,10.8-7.3,17.8-7.3c3.7,0,7.2,0.8,10.5,2.3
		c3.1,1.5,6.2,4,9.2,7.5l-5.2,4.9c-3.9-5.2-8.7-7.9-14.4-7.9c-5.1,0-9.3,1.8-12.8,5.2c-3.4,3.4-5.2,7.7-5.2,12.9
		c0,5.3,1.9,9.7,5.7,13.2c3.6,3.2,7.5,4.8,11.6,4.8c3.6,0,6.8-1.2,9.6-3.6c2.8-2.4,4.4-5.3,4.8-8.7h-12v-6.7H158.9z"/>
	<path class="st1" d="M204,35.6L218.9,56H210l-13.7-19.6H195V56h-7.2V8h8.5c6.3,0,10.9,1.2,13.7,3.6c3.1,2.7,4.7,6.2,4.7,10.5
		c0,3.4-1,6.3-2.9,8.8C209.8,33.4,207.2,34.9,204,35.6z M195,30.1h2.3c6.9,0,10.3-2.6,10.3-7.9c0-4.9-3.3-7.4-10-7.4H195V30.1z"/>
	<path class="st1" d="M254.2,44.4h-20.5L228.4,56h-7.8l23.7-51l22.9,51h-7.9L254.2,44.4z M251.3,37.6l-7.1-16.3l-7.5,16.3H251.3z"/>
	<path class="st1" d="M280.4,36.6V56h-7.2V8h8.2c4,0,7.1,0.3,9.1,0.8c2.1,0.6,3.9,1.6,5.5,3.2c2.8,2.7,4.1,6.1,4.1,10.2
		c0,4.4-1.5,7.9-4.4,10.4c-2.9,2.6-6.9,3.9-11.9,3.9L280.4,36.6L280.4,36.6z M280.4,29.9h2.7c6.6,0,10-2.6,10-7.7
		c0-4.9-3.4-7.4-10.3-7.4h-2.4L280.4,29.9L280.4,29.9z"/>
	<path class="st1" d="M314.8,26.8h20.7V8.1h7.2v48h-7.2V33.6h-20.7V56h-7.2V8h7.2V26.8z"/>
	<path class="st1" d="M361.4,8.1v48h-7.2v-48C354.2,8.1,361.4,8.1,361.4,8.1z"/>
	<path class="st1" d="M408.4,10.7v8.6c-4.2-3.5-8.5-5.2-13-5.2c-4.9,0-9.1,1.8-12.5,5.3s-5.1,7.8-5.1,12.9c0,5,1.7,9.3,5.1,12.7
		c3.4,3.5,7.6,5.2,12.5,5.2c2.5,0,4.7-0.4,6.5-1.2c1-0.4,2-1,3.1-1.7s2.2-1.6,3.4-2.5v8.7c-4.1,2.3-8.5,3.5-13,3.5
		c-6.9,0-12.7-2.4-17.5-7.2s-7.2-10.6-7.2-17.5c0-6.1,2-11.6,6.1-16.3c5-5.9,11.4-8.8,19.3-8.8C400.2,7.2,404.4,8.3,408.4,10.7z"/>
	<path class="st1" d="M143.2,68.1h18.4c3.3,0,6.3,0.7,9.2,2s5.4,3.1,7.5,5.2c2.1,2.2,3.8,4.7,5.1,7.6c1.2,2.9,1.8,5.9,1.8,9.1
		c0,3.1-0.6,6.2-1.8,9.1s-2.9,5.5-5,7.7s-4.6,4-7.5,5.3s-5.9,2-9.3,2h-18.4V68.1z M155.7,105.5h2.9c2.2,0,4.1-0.3,5.8-1
		s3.1-1.6,4.3-2.8c1.2-1.2,2.1-2.6,2.7-4.2c0.6-1.6,0.9-3.4,0.9-5.4c0-1.9-0.3-3.7-1-5.3c-0.6-1.7-1.5-3.1-2.7-4.3
		c-1.2-1.2-2.6-2.1-4.3-2.8c-1.7-0.7-3.6-1-5.7-1h-2.9V105.5z"/>
	<path class="st1" d="M220.5,78.6h-14.8v8h14v10.6h-14v8.3h14.8V116h-27.3V68h27.3V78.6z"/>
	<path class="st1" d="M255.8,80.4c-1.4-1.1-2.7-1.9-4.1-2.4c-1.4-0.5-2.7-0.8-3.9-0.8c-1.6,0-2.9,0.4-3.9,1.1c-1,0.8-1.5,1.8-1.5,3
		c0,0.8,0.3,1.5,0.8,2.1s1.2,1,2,1.4s1.8,0.8,2.8,1c1,0.3,2.1,0.6,3.1,1c4.1,1.4,7.1,3.2,8.9,5.4c1.9,2.3,2.8,5.2,2.8,8.9
		c0,2.5-0.4,4.7-1.2,6.7c-0.8,2-2,3.7-3.6,5.1s-3.5,2.5-5.9,3.3c-2.3,0.8-4.9,1.2-7.9,1.2c-6.1,0-11.7-1.8-16.9-5.4l5.3-10.1
		c1.9,1.7,3.7,2.9,5.5,3.7c1.8,0.8,3.6,1.2,5.4,1.2c2,0,3.6-0.5,4.5-1.4c1-0.9,1.5-2,1.5-3.2c0-0.7-0.1-1.3-0.4-1.9
		c-0.3-0.5-0.7-1-1.3-1.5c-0.6-0.4-1.4-0.9-2.3-1.2c-1-0.4-2.1-0.8-3.5-1.3c-1.6-0.5-3.2-1.1-4.7-1.7s-2.9-1.4-4.1-2.4
		c-1.2-1-2.2-2.3-2.9-3.8s-1.1-3.5-1.1-5.9s0.4-4.5,1.2-6.5c0.8-1.9,1.9-3.6,3.3-5c1.4-1.4,3.2-2.4,5.2-3.2c2.1-0.8,4.4-1.1,6.9-1.1
		c2.4,0,4.9,0.3,7.4,1c2.6,0.7,5.1,1.6,7.4,2.9L255.8,80.4z"/>
	<path class="st1" d="M283.1,68.1v48h-12.5v-48H283.1z"/>
	<path class="st1" d="M316.5,89.2h24.7c0,2.5-0.1,4.9-0.3,6.9c-0.2,2.1-0.6,4-1.3,5.8c-0.9,2.5-2.1,4.7-3.6,6.6s-3.3,3.5-5.4,4.8
		s-4.3,2.3-6.8,3s-5,1-7.8,1c-3.7,0-7.1-0.6-10.2-1.8c-3.1-1.2-5.7-3-7.9-5.2c-2.2-2.2-3.9-4.9-5.2-8c-1.2-3.1-1.8-6.6-1.8-10.3
		c0-3.7,0.6-7.2,1.8-10.3c1.2-3.1,2.9-5.8,5.2-8c2.2-2.2,4.9-3.9,8-5.2c3.1-1.2,6.6-1.8,10.5-1.8c5,0,9.4,1.1,13.2,3.2
		s6.8,5.5,9,10.1l-11.8,4.9c-1.1-2.6-2.5-4.5-4.3-5.7c-1.8-1.1-3.8-1.7-6-1.7c-1.9,0-3.6,0.4-5.1,1c-1.5,0.7-2.8,1.7-3.9,3
		s-1.9,2.9-2.5,4.7c-0.6,1.8-0.9,3.9-0.9,6.1c0,2,0.3,3.9,0.8,5.7c0.5,1.7,1.3,3.2,2.4,4.5s2.4,2.3,3.9,3c1.6,0.7,3.4,1,5.5,1
		c1.2,0,2.4-0.1,3.6-0.4c1.1-0.3,2.2-0.7,3.1-1.3c0.9-0.6,1.7-1.4,2.3-2.4c0.6-1,1-2.2,1.2-3.6h-10.2v-9.6H316.5z"/>
	<path class="st1" d="M349.1,116V68h12.5l23,29.3V68.1H397v48h-12.4l-23-29.3V116H349.1z"/>
</g>
</svg>
