<?xml version="1.0" encoding="utf-8"?>
<!-- Generator: Adobe Illustrator 22.1.0, SVG Export Plug-In . SVG Version: 6.00 Build 0)  -->
<svg version="1.1" id="Layer_1" xmlns="http://www.w3.org/2000/svg" xmlns:xlink="http://www.w3.org/1999/xlink" x="0px" y="0px"
	 viewBox="0 0 546 122.5" style="enable-background:new 0 0 546 122.5;" xml:space="preserve">
<style type="text/css">
	.st0{fill:none;}
	.st1{fill:#204582;}
</style>
<rect class="st0" width="546" height="122.5"/>
<g>
	<path class="st1" d="M213.3,44.4h-20.5L187.4,56h-7.8l23.7-51l22.9,51h-7.9L213.3,44.4z M210.3,37.6l-7.1-16.3l-7.5,16.3H210.3z"/>
	<path class="st1" d="M248.4,35.6L263.3,56h-8.9l-13.7-19.6h-1.3V56h-7.2V8h8.5c6.3,0,10.9,1.2,13.7,3.6c3.1,2.7,4.7,6.2,4.7,10.5
		c0,3.4-1,6.3-2.9,8.8C254.2,33.4,251.6,34.9,248.4,35.6z M239.4,30.1h2.3c6.9,0,10.3-2.6,10.3-7.9c0-4.9-3.3-7.4-10-7.4h-2.6V30.1z
		"/>
	<path class="st1" d="M283.2,14.9V56H276V14.9h-11V8.1h29.3v6.8C294.3,14.9,283.2,14.9,283.2,14.9z"/>
	<path class="st1" d="M339.1,29.4l8.6,10.4l0.3-0.3c0.9-1,1.8-2,2.6-3c0.8-1,1.6-2,2.4-3l4.7,4.8c-0.6,0.8-1.3,1.8-2.3,2.9
		c-0.9,1.1-2.1,2.4-3.4,3.8l8.9,11h-9l-4.8-5.9c-4.4,4.5-9,6.8-13.7,6.8c-4.2,0-7.8-1.4-10.8-4.1c-2.9-2.7-4.3-6.1-4.3-10.1
		c0-4.8,2.3-8.8,6.9-11.9l3.1-2.1c0,0,0.1-0.1,0.2-0.2s0.2-0.2,0.4-0.3c-3.2-3.4-4.8-6.7-4.8-10c0-3.2,1.1-5.9,3.2-7.9
		c2.2-2,4.9-3,8.3-3c3.3,0,6,1,8.2,3s3.2,4.5,3.2,7.5c0,2.1-0.6,3.9-1.8,5.6C344.3,25,342.2,27,339.1,29.4z M333.4,33.4l-0.4,0.3
		c-3,2.1-5,3.7-6.1,4.9s-1.6,2.6-1.6,3.9c0,2,0.8,3.8,2.4,5.5c1.7,1.6,3.5,2.4,5.5,2.4c2.8,0,6-1.8,9.7-5.5L333.4,33.4z M334.9,24.3
		l0.6-0.4c1-0.8,1.9-1.4,2.5-2c0.7-0.6,1.1-1.1,1.4-1.4c0.6-0.8,0.9-1.7,0.9-2.8c0-1.3-0.4-2.3-1.3-3.1c-0.8-0.8-2-1.2-3.4-1.2
		c-1.3,0-2.4,0.4-3.3,1.2s-1.3,1.8-1.3,3c0,1.4,0.6,2.8,1.7,4.2l1.8,2.2C334.6,23.9,334.7,24.1,334.9,24.3z"/>
	<path class="st1" d="M17.2,116H4.7V68h19.8c5.4,0,9.5,1.4,12.4,4.2c2.9,2.8,4.3,6.7,4.3,11.8s-1.4,9-4.3,11.8
		c-2.9,2.8-7,4.2-12.4,4.2h-7.4L17.2,116L17.2,116z M17.2,90.1h4.1c4.6,0,6.9-2,6.9-6s-2.3-6-6.9-6h-4.1V90.1z"/>
	<path class="st1" d="M60.3,86.6h18V68.1h12.5v48H78.3V96.3h-18V116H47.8V68h12.5V86.6z"/>
	<path class="st1" d="M98.6,92.1c0-3.6,0.7-6.9,2-10s3.1-5.8,5.5-8c2.3-2.3,5.1-4.1,8.4-5.4c3.2-1.3,6.8-1.9,10.7-1.9
		s7.4,0.6,10.7,1.9s6.1,3.1,8.4,5.4s4.2,5,5.5,8c1.3,3.1,2,6.4,2,10s-0.7,6.9-2,10s-3.1,5.8-5.5,8s-5.2,4.1-8.4,5.4
		s-6.8,1.9-10.7,1.9c-3.9,0-7.5-0.6-10.7-1.9s-6-3.1-8.4-5.4c-2.3-2.3-4.2-5-5.5-8C99.3,98.9,98.6,95.6,98.6,92.1z M111.7,92.1
		c0,1.9,0.4,3.7,1.1,5.3c0.7,1.6,1.7,3,2.9,4.2c1.2,1.2,2.7,2.1,4.3,2.8c1.6,0.7,3.4,1,5.2,1c1.8,0,3.6-0.3,5.2-1
		c1.6-0.7,3.1-1.6,4.3-2.8c1.2-1.2,2.2-2.6,3-4.2c0.7-1.6,1.1-3.4,1.1-5.3s-0.4-3.7-1.1-5.3c-0.7-1.6-1.7-3-3-4.2s-2.7-2.1-4.3-2.8
		c-1.6-0.7-3.4-1-5.2-1c-1.8,0-3.6,0.3-5.2,1s-3.1,1.6-4.3,2.8c-1.2,1.2-2.2,2.6-2.9,4.2C112,88.4,111.7,90.2,111.7,92.1z"/>
	<path class="st1" d="M177.3,78.6V116h-12.5V78.6h-10.2V68.1h33v10.6L177.3,78.6L177.3,78.6z"/>
	<path class="st1" d="M190.5,92.1c0-3.6,0.7-6.9,2-10s3.1-5.8,5.5-8c2.3-2.3,5.1-4.1,8.4-5.4c3.2-1.3,6.8-1.9,10.7-1.9
		s7.4,0.6,10.7,1.9s6.1,3.1,8.4,5.4s4.2,5,5.5,8c1.3,3.1,2,6.4,2,10s-0.7,6.9-2,10s-3.1,5.8-5.5,8s-5.2,4.1-8.4,5.4
		s-6.8,1.9-10.7,1.9s-7.5-0.6-10.7-1.9s-6-3.1-8.4-5.4c-2.3-2.3-4.2-5-5.5-8C191.2,98.9,190.5,95.6,190.5,92.1z M203.5,92.1
		c0,1.9,0.4,3.7,1.1,5.3c0.7,1.6,1.7,3,2.9,4.2s2.7,2.1,4.3,2.8c1.6,0.7,3.4,1,5.2,1s3.6-0.3,5.2-1c1.6-0.7,3.1-1.6,4.3-2.8
		c1.2-1.2,2.2-2.6,3-4.2c0.7-1.6,1.1-3.4,1.1-5.3s-0.4-3.7-1.1-5.3c-0.7-1.6-1.7-3-3-4.2s-2.7-2.1-4.3-2.8c-1.6-0.7-3.4-1-5.2-1
		s-3.6,0.3-5.2,1c-1.6,0.7-3.1,1.6-4.3,2.8c-1.2,1.2-2.2,2.6-2.9,4.2C203.9,88.4,203.5,90.2,203.5,92.1z"/>
	<path class="st1" d="M274.9,89.2h24.7c0,2.5-0.1,4.9-0.3,6.9c-0.2,2.1-0.6,4-1.3,5.8c-0.9,2.5-2.1,4.7-3.6,6.6s-3.3,3.5-5.4,4.8
		s-4.3,2.3-6.8,3s-5,1-7.8,1c-3.7,0-7.1-0.6-10.2-1.8c-3.1-1.2-5.7-3-7.9-5.2c-2.2-2.2-3.9-4.9-5.2-8c-1.2-3.1-1.8-6.6-1.8-10.3
		c0-3.7,0.6-7.2,1.8-10.3c1.2-3.1,2.9-5.8,5.2-8c2.2-2.2,4.9-3.9,8-5.2c3.1-1.2,6.6-1.8,10.5-1.8c5,0,9.4,1.1,13.2,3.2
		s6.8,5.5,9,10.1l-11.8,4.9c-1.1-2.6-2.5-4.5-4.3-5.7c-1.8-1.1-3.8-1.7-6-1.7c-1.9,0-3.6,0.4-5.1,1c-1.5,0.7-2.8,1.7-3.9,3
		s-1.9,2.9-2.5,4.7c-0.6,1.8-0.9,3.9-0.9,6.1c0,2,0.3,3.9,0.8,5.7c0.5,1.7,1.3,3.2,2.4,4.5s2.4,2.3,3.9,3c1.6,0.7,3.4,1,5.5,1
		c1.2,0,2.4-0.1,3.6-0.4c1.1-0.3,2.2-0.7,3.1-1.3c0.9-0.6,1.7-1.4,2.3-2.4c0.6-1,1-2.2,1.2-3.6h-10.2v-9.6H274.9z"/>
	<path class="st1" d="M347.4,116h-15.5L320,97.6V116h-12.5V68h19.4c2.7,0,5,0.4,7,1.2c2,0.8,3.6,1.9,4.9,3.2
		c1.3,1.4,2.3,2.9,2.9,4.7c0.7,1.8,1,3.7,1,5.7c0,3.6-0.9,6.6-2.6,8.9c-1.8,2.3-4.4,3.8-7.8,4.6L347.4,116z M320,89.5h2.4
		c2.5,0,4.3-0.5,5.7-1.5c1.3-1,2-2.5,2-4.4s-0.7-3.4-2-4.4s-3.2-1.5-5.7-1.5H320V89.5z"/>
	<path class="st1" d="M382,107.7h-17.8l-2.9,8.3H348l18.3-48h13.6l18.3,48h-13.3L382,107.7z M378.7,98.2l-5.6-16l-5.6,16H378.7z"/>
	<path class="st1" d="M416.1,116h-12.5V68h19.8c5.4,0,9.5,1.4,12.4,4.2c2.9,2.8,4.3,6.7,4.3,11.8s-1.4,9-4.3,11.8s-7,4.2-12.4,4.2
		H416v16H416.1z M416.1,90.1h4.1c4.6,0,6.9-2,6.9-6s-2.3-6-6.9-6h-4.1V90.1z"/>
	<path class="st1" d="M459.2,86.6h18V68.1h12.5v48h-12.5V96.3h-18V116h-12.5V68h12.5V86.6z"/>
	<path class="st1" d="M511.3,93l-17.5-24.9h14.9l8.9,13.1l8.8-13.1h14.9L523.8,93v23h-12.5V93z"/>
</g>
</svg>
