<?xml version="1.0" encoding="utf-8"?>
<!-- Generator: Adobe Illustrator 22.1.0, SVG Export Plug-In . SVG Version: 6.00 Build 0)  -->
<svg version="1.1" id="Layer_1" xmlns="http://www.w3.org/2000/svg" xmlns:xlink="http://www.w3.org/1999/xlink" x="0px" y="0px"
	 viewBox="0 0 546 122.5" style="enable-background:new 0 0 546 122.5;" xml:space="preserve">
<style type="text/css">
	.st0{fill:none;}
	.st1{fill:#204582;}
</style>
<rect class="st0" width="546" height="122.5"/>
<g>
	<path class="st1" d="M117.3,15h-16.7v11.5h16.1v6.8h-16.1v22.8h-7.2v-48h23.9C117.3,8.1,117.3,15,117.3,15z"/>
	<path class="st1" d="M141.9,35.7l14.8,20.4h-8.9l-13.7-19.6h-1.3v19.6h-7.2v-48h8.5c6.3,0,10.9,1.2,13.7,3.6
		c3.1,2.7,4.7,6.1,4.7,10.5c0,3.4-1,6.3-2.9,8.8S145.1,35,141.9,35.7z M132.9,30.2h2.3c6.9,0,10.3-2.6,10.3-7.9
		c0-4.9-3.3-7.4-10-7.4h-2.6V30.2z"/>
	<path class="st1" d="M160.5,32c0-6.8,2.5-12.5,7.4-17.4c4.9-4.8,10.9-7.3,17.8-7.3c6.8,0,12.7,2.4,17.6,7.3
		c4.9,4.9,7.4,10.8,7.4,17.6c0,6.9-2.5,12.7-7.4,17.5s-10.9,7.2-17.9,7.2c-6.2,0-11.8-2.1-16.7-6.4C163.2,45.9,160.5,39.7,160.5,32z
		 M167.8,32.1c0,5.3,1.8,9.7,5.3,13.1c3.5,3.4,7.6,5.1,12.3,5.1c5,0,9.3-1.7,12.7-5.2c3.5-3.5,5.2-7.8,5.2-12.9s-1.7-9.4-5.1-12.9
		c-3.4-3.5-7.6-5.2-12.6-5.2s-9.2,1.7-12.6,5.2C169.5,22.8,167.8,27,167.8,32.1z"/>
	<path class="st1" d="M219.7,56.2V4.9l35,36.6V8.2h7.2v50.9l-35-36.5v33.6H219.7z"/>
	<path class="st1" d="M286.7,15v41.2h-7.2V15h-11V8.2h29.3V15H286.7z"/>
	<path class="st1" d="M350.2,15H331v11.5h18.7v6.8H331v16h19.2v6.8h-26.5v-48h26.5V15z"/>
	<path class="st1" d="M359.7,56.2V4.9l35,36.6V8.2h7.2v50.9l-35-36.5v33.6H359.7z"/>
	<path class="st1" d="M413.4,56.2v-48h10.1c4.8,0,8.6,0.5,11.4,1.4c3,0.9,5.7,2.5,8.2,4.8c4.9,4.5,7.4,10.4,7.4,17.8
		s-2.6,13.3-7.7,17.9c-2.6,2.3-5.3,3.9-8.1,4.8c-2.7,0.9-6.4,1.3-11.3,1.3C423.4,56.2,413.4,56.2,413.4,56.2z M420.7,49.4h3.3
		c3.3,0,6-0.3,8.1-1c2.2-0.7,4.1-1.9,5.8-3.4c3.6-3.2,5.3-7.5,5.3-12.7c0-5.3-1.8-9.5-5.3-12.8c-3.2-2.9-7.8-4.4-14-4.4h-3.3v34.3
		H420.7z"/>
	<path class="st1" d="M24.9,68.2h18.4c3.3,0,6.3,0.7,9.2,2s5.4,3.1,7.5,5.2c2.1,2.2,3.8,4.7,5.1,7.6c1.3,3,1.9,6,1.9,9.2
		c0,3.1-0.6,6.2-1.8,9.1c-1.2,2.9-2.9,5.5-5,7.7s-4.6,4-7.5,5.3s-5.9,2-9.3,2H24.9V68.2z M37.4,105.6h2.9c2.2,0,4.1-0.3,5.8-1
		s3.1-1.6,4.3-2.8c1.2-1.2,2.1-2.6,2.7-4.2c0.6-1.6,0.9-3.4,0.9-5.4c0-1.9-0.3-3.7-1-5.3c-0.6-1.7-1.5-3.1-2.7-4.3
		c-1.2-1.2-2.6-2.1-4.3-2.8c-1.7-0.7-3.6-1-5.7-1h-2.9V105.6z"/>
	<path class="st1" d="M102.2,78.8H87.4v8h14v10.6h-14v8.3h14.8v10.6H74.9v-48h27.3V78.8z"/>
	<path class="st1" d="M119.7,68.2l11.6,29.2l11.6-29.2h13.5l-20.2,48h-9.9l-20.2-48H119.7z"/>
	<path class="st1" d="M188.8,78.8H174v8h14v10.6h-14v8.3h14.8v10.6h-27.3v-48h27.3V78.8z"/>
	<path class="st1" d="M210.2,68.2v37.4h14.9v10.6h-27.4v-48H210.2z"/>
	<path class="st1" d="M228.5,92.2c0-3.6,0.7-6.9,2-10s3.1-5.8,5.5-8c2.3-2.3,5.1-4.1,8.4-5.4c3.2-1.3,6.8-1.9,10.7-1.9
		c3.9,0,7.4,0.6,10.7,1.9s6.1,3.1,8.4,5.4s4.2,5,5.5,8c1.3,3.1,2,6.4,2,10s-0.7,6.9-2,10s-3.1,5.8-5.5,8s-5.2,4.1-8.4,5.4
		s-6.8,1.9-10.7,1.9c-3.9,0-7.5-0.6-10.7-1.9s-6-3.1-8.4-5.4c-2.3-2.3-4.2-5-5.5-8C229.1,99.1,228.5,95.7,228.5,92.2z M241.5,92.2
		c0,1.9,0.4,3.7,1.1,5.3c0.7,1.6,1.7,3,2.9,4.2s2.7,2.1,4.3,2.8c1.6,0.7,3.4,1,5.2,1c1.8,0,3.6-0.3,5.2-1s3.1-1.6,4.3-2.8
		c1.2-1.2,2.2-2.6,3-4.2c0.7-1.6,1.1-3.4,1.1-5.3s-0.4-3.7-1.1-5.3c-0.7-1.6-1.7-3-3-4.2s-2.7-2.1-4.3-2.8c-1.6-0.7-3.4-1-5.2-1
		s-3.6,0.3-5.2,1c-1.6,0.7-3.1,1.6-4.3,2.8c-1.2,1.2-2.2,2.6-2.9,4.2C241.9,88.5,241.5,90.3,241.5,92.2z"/>
	<path class="st1" d="M302,116.2h-12.5v-48h19.8c5.4,0,9.5,1.4,12.4,4.2c2.9,2.8,4.3,6.7,4.3,11.8s-1.4,9-4.3,11.8s-7,4.2-12.4,4.2
		H302V116.2z M302,90.2h4.1c4.6,0,6.9-2,6.9-6s-2.3-6-6.9-6H302V90.2z"/>
	<path class="st1" d="M330.4,116.2l8.1-48h12.3l9.6,25.6l9.5-25.6h12.3l8.1,48h-12.4L374,88.6l-11.3,27.6h-5L347,88.6l-4.1,27.6
		H330.4z"/>
	<path class="st1" d="M425.7,78.8h-14.8v8h14v10.6h-14v8.3h14.8v10.6h-27.3v-48h27.3V78.8z"/>
	<path class="st1" d="M434.7,116.2v-48h12.5l23,29.3V68.2h12.4v48h-12.4l-23-29.3v29.3H434.7z"/>
	<path class="st1" d="M510.9,78.8v37.4h-12.5V78.8h-10.2V68.2h33v10.6C521.2,78.8,510.9,78.8,510.9,78.8z"/>
</g>
</svg>
