<?xml version="1.0" encoding="utf-8"?>
<!-- Generator: Adobe Illustrator 22.1.0, SVG Export Plug-In . SVG Version: 6.00 Build 0)  -->
<svg version="1.1" id="Layer_1" xmlns="http://www.w3.org/2000/svg" xmlns:xlink="http://www.w3.org/1999/xlink" x="0px" y="0px"
	 viewBox="0 0 546 122.5" style="enable-background:new 0 0 546 122.5;" xml:space="preserve">
<style type="text/css">
	.st0{fill:none;}
	.st1{fill:#204582;}
</style>
<rect class="st0" width="546" height="122.5"/>
<g>
	<path class="st1" d="M210.6,7.7l12.5,32.1l13-34.4l12.5,34.4l13.3-32.1h7.9l-21.4,51l-12.3-34l-12.9,34l-20.4-51
		C202.8,7.7,210.6,7.7,210.6,7.7z"/>
	<path class="st1" d="M302.2,14.5H283V26h18.7v6.8H283v16h19.2v6.8h-26.5v-48h26.5V14.5z"/>
	<path class="st1" d="M311.7,55.7v-48h7.2c3.2,0,5.8,0.2,7.7,0.7c1.9,0.5,3.6,1.3,4.9,2.5s2.4,2.7,3.2,4.6c0.8,1.8,1.2,3.7,1.2,5.6
		c0,3.4-1.3,6.3-3.9,8.7c2.5,0.9,4.6,2.4,6,4.6c1.5,2.2,2.2,4.7,2.2,7.5c0,3.7-1.3,6.9-4,9.5c-1.6,1.6-3.4,2.7-5.4,3.3
		c-2.2,0.6-4.9,0.9-8.2,0.9h-10.9V55.7z M318.9,28.3h2.3c2.7,0,4.7-0.6,5.9-1.8s1.9-2.9,1.9-5.3c0-2.3-0.6-4-1.9-5.1
		s-3.1-1.8-5.6-1.8H319L318.9,28.3L318.9,28.3z M318.9,48.9h4.5c3.3,0,5.7-0.6,7.2-1.9c1.6-1.4,2.4-3.1,2.4-5.3
		c0-2.1-0.8-3.8-2.3-5.2s-4.2-2.1-8.1-2.1h-3.7V48.9z"/>
	<path class="st1" d="M146.1,67.7h18.4c3.3,0,6.3,0.7,9.2,2s5.4,3.1,7.5,5.2c2.1,2.2,3.8,4.7,5.1,7.6c1.2,2.9,1.8,5.9,1.8,9.1
		c0,3.1-0.6,6.2-1.8,9.1s-2.9,5.5-5,7.7s-4.6,4-7.5,5.3s-5.9,2-9.3,2h-18.4V67.7z M158.6,105.1h2.9c2.2,0,4.1-0.3,5.8-1
		s3.1-1.6,4.3-2.8c1.2-1.2,2.1-2.6,2.7-4.2c0.6-1.6,0.9-3.4,0.9-5.4c0-1.9-0.3-3.7-1-5.3c-0.6-1.7-1.5-3.1-2.7-4.3
		c-1.2-1.2-2.6-2.1-4.3-2.8c-1.7-0.7-3.6-1-5.7-1h-2.9V105.1z"/>
	<path class="st1" d="M223.4,78.3h-14.8v8h14v10.6h-14v8.3h14.8v10.6h-27.3v-48h27.3V78.3z"/>
	<path class="st1" d="M258.7,80c-1.4-1.1-2.7-1.9-4.1-2.4s-2.7-0.8-3.9-0.8c-1.6,0-2.9,0.4-3.9,1.1c-1,0.8-1.5,1.8-1.5,3
		c0,0.8,0.3,1.5,0.8,2.1s1.2,1,2,1.4s1.8,0.8,2.8,1c1,0.3,2.1,0.6,3.1,1c4.1,1.4,7.1,3.2,8.9,5.4c1.9,2.3,2.8,5.2,2.8,8.9
		c0,2.5-0.4,4.7-1.2,6.7c-0.8,2-2,3.7-3.6,5.1s-3.5,2.5-5.9,3.3c-2.3,0.8-4.9,1.2-7.9,1.2c-6.1,0-11.7-1.8-16.9-5.4l5.3-10.1
		c1.9,1.7,3.7,2.9,5.5,3.7c1.8,0.8,3.6,1.2,5.4,1.2c2,0,3.6-0.5,4.5-1.4c1-0.9,1.5-2,1.5-3.2c0-0.7-0.1-1.3-0.4-1.9
		c-0.3-0.5-0.7-1-1.3-1.5c-0.6-0.4-1.4-0.9-2.3-1.2c-1-0.4-2.1-0.8-3.5-1.3c-1.6-0.5-3.2-1.1-4.7-1.7s-2.9-1.4-4.1-2.4
		c-1.2-1-2.2-2.3-2.9-3.8s-1.1-3.5-1.1-5.9s0.4-4.5,1.2-6.5c0.8-1.9,1.9-3.6,3.3-5c1.4-1.4,3.2-2.4,5.2-3.2c2.1-0.8,4.4-1.1,6.9-1.1
		c2.4,0,4.9,0.3,7.4,1c2.6,0.7,5.1,1.6,7.4,2.9L258.7,80z"/>
	<path class="st1" d="M286,67.7v48h-12.5v-48H286z"/>
	<path class="st1" d="M319.3,88.9H344c0,2.5-0.1,4.9-0.3,6.9c-0.2,2.1-0.6,4-1.3,5.8c-0.9,2.5-2.1,4.7-3.6,6.6s-3.3,3.5-5.4,4.8
		s-4.3,2.3-6.8,3s-5,1-7.8,1c-3.7,0-7.1-0.6-10.2-1.8c-3.1-1.2-5.7-3-7.9-5.2c-2.2-2.2-3.9-4.9-5.2-8c-1.2-3.1-1.8-6.6-1.8-10.3
		c0-3.7,0.6-7.2,1.8-10.3c1.2-3.1,2.9-5.8,5.2-8c2.2-2.2,4.9-3.9,8-5.2c3.1-1.2,6.6-1.8,10.5-1.8c5,0,9.4,1.1,13.2,3.2
		s6.8,5.5,9,10.1l-11.8,4.9c-1.1-2.6-2.5-4.5-4.3-5.7c-1.8-1.1-3.8-1.7-6-1.7c-1.9,0-3.6,0.4-5.1,1c-1.5,0.7-2.8,1.7-3.9,3
		s-1.9,2.9-2.5,4.7c-0.6,1.8-0.9,3.9-0.9,6.1c0,2,0.3,3.9,0.8,5.7c0.5,1.7,1.3,3.2,2.4,4.5s2.4,2.3,3.9,3c1.6,0.7,3.4,1,5.5,1
		c1.2,0,2.4-0.1,3.6-0.4c1.1-0.3,2.2-0.7,3.1-1.3c0.9-0.6,1.7-1.4,2.3-2.4c0.6-1,1-2.2,1.2-3.6h-10.2v-9.6H319.3z"/>
	<path class="st1" d="M352,115.7v-48h12.5l23,29.3V67.7h12.4v48h-12.4l-23-29.3v29.3H352z"/>
</g>
</svg>
